<svg version="1.1" id="Layer_1" xmlns="http://www.w3.org/2000/svg" xmlns:xlink="http://www.w3.org/1999/xlink" x="0px" y="0px"
	 width="100%" viewBox="0 0 1904 822" enable-background="new 0 0 1904 822" xml:space="preserve">
<path fill="#000000" opacity="1.000000" stroke="none" 
	d="
M1293.000000,823.000000 
	C862.000000,823.000000 431.500000,823.000000 1.000000,823.000000 
	C1.000000,549.000000 1.000000,275.000000 1.000000,1.000000 
	C635.666687,1.000000 1270.333374,1.000000 1905.000000,1.000000 
	C1905.000000,275.000000 1905.000000,549.000000 1905.000000,823.000000 
	C1701.166626,823.000000 1497.333374,823.000000 1293.000000,823.000000 
M698.523987,349.499634 
	C698.523987,397.107788 698.523987,444.715973 698.523987,492.405365 
	C707.890198,492.405365 716.636841,492.405365 726.049805,492.405365 
	C726.049805,462.177521 726.049805,432.232330 726.049805,401.379517 
	C750.932251,435.539764 795.332397,437.830475 824.076172,421.955597 
	C876.106934,393.219604 884.169312,315.813965 839.661011,275.017090 
	C808.321045,246.290405 753.792236,246.791245 727.092957,283.130768 
	C726.900635,283.392548 726.402588,283.429718 725.526184,283.780121 
	C725.526184,274.953857 725.526184,266.539032 725.526184,258.276794 
	C716.333618,258.276794 707.581482,258.276794 698.524048,258.276794 
	C698.524048,288.549622 698.524048,318.524628 698.523987,349.499634 
M1140.070557,291.574615 
	C1123.733643,317.038086 1120.404541,344.522583 1129.806641,372.856964 
	C1141.010376,406.620300 1165.236572,426.427734 1200.510254,430.615021 
	C1237.208374,434.971405 1266.832275,421.896515 1287.284302,390.324097 
	C1290.260254,385.729858 1292.484497,380.648682 1295.370728,375.199829 
	C1286.277710,375.199829 1278.447266,375.099762 1270.624146,375.294739 
	C1269.261353,375.328735 1267.408081,376.254547 1266.660400,377.361938 
	C1252.963257,397.651154 1233.512939,406.420441 1209.528809,405.860840 
	C1179.867188,405.168823 1154.082275,380.670197 1152.574707,351.384979 
	C1201.121704,351.384979 1249.639404,351.384979 1298.108276,351.384979 
	C1300.819946,307.471985 1279.121826,272.177704 1241.132690,259.396240 
	C1205.376953,247.366180 1163.625244,257.173920 1140.070557,291.574615 
M232.976273,431.224152 
	C257.128571,430.564240 276.682892,420.665710 292.207336,400.807098 
	C292.207336,410.508606 292.207336,419.092560 292.207336,427.630737 
	C301.445740,427.630737 310.310242,427.630737 319.043732,427.630737 
	C319.043732,389.112549 319.495453,350.959534 318.884430,312.823578 
	C318.479370,287.544739 302.350800,267.027954 278.403809,258.954193 
	C262.877045,253.719315 246.966507,253.554611 231.019241,256.179199 
	C203.854462,260.649994 180.089355,283.198639 175.207825,308.833923 
	C184.036850,308.833923 192.838242,308.833923 200.333862,308.833923 
	C205.303604,302.715546 209.144714,296.539612 214.342102,291.874786 
	C227.043304,280.475098 242.601059,278.637695 258.838776,280.830994 
	C282.068359,283.968719 295.454712,302.487213 291.471161,326.022064 
	C271.896149,326.022064 252.264755,325.850647 232.637970,326.077301 
	C217.434280,326.252838 202.905151,329.355042 189.985825,337.936890 
	C158.952377,358.551300 160.905670,405.200928 193.524429,423.152649 
	C205.565842,429.779602 218.581024,431.667419 232.976273,431.224152 
M559.195923,419.313599 
	C573.464478,428.321228 589.224060,431.452576 605.864868,431.339691 
	C624.052856,431.216339 641.211182,427.724670 656.236755,416.736816 
	C679.111206,400.009277 682.495972,363.236572 657.277405,346.261536 
	C652.080688,342.763550 646.513611,339.421997 640.636963,337.413574 
	C629.817444,333.715790 618.603943,331.187927 607.624451,327.936554 
	C596.038574,324.505646 583.971130,321.999634 573.133667,316.916016 
	C558.855225,310.218323 558.796387,294.944672 572.569458,287.018250 
	C578.295959,283.722595 585.154480,281.490784 591.724609,280.729889 
	C613.187744,278.244171 631.811768,283.164490 643.252625,303.712189 
	C643.722900,304.556824 644.909790,305.531769 645.776428,305.544830 
	C654.695374,305.679047 663.617065,305.627136 672.907654,305.627136 
	C670.016602,293.968567 664.453796,284.523071 656.711365,276.262756 
	C640.951538,259.448883 620.804626,254.448547 598.703430,254.636032 
	C582.412598,254.774216 567.048767,257.949127 553.413086,267.545929 
	C530.448975,283.708069 527.832214,320.108643 553.299988,336.686005 
	C558.955322,340.367126 565.050842,343.836060 571.434387,345.838562 
	C585.044617,350.108185 599.088745,352.983856 612.737793,357.143616 
	C622.183777,360.022461 631.499390,363.599182 640.427856,367.808777 
	C646.169800,370.516022 648.029236,376.305573 647.276184,382.688660 
	C646.075195,392.868439 639.702332,399.390320 630.598206,401.756256 
	C620.918274,404.271851 610.626160,405.833618 600.662659,405.562195 
	C580.439453,405.011261 565.312866,395.228973 556.265198,376.755829 
	C555.994019,376.202057 555.612976,375.702148 555.442017,375.429993 
	C545.798401,375.429993 536.541809,375.429993 526.824280,375.429993 
	C532.326660,393.985962 542.350342,408.708069 559.195923,419.313599 
M491.496582,428.006866 
	C495.782867,428.006866 500.069153,428.006866 504.514404,428.006866 
	C504.514404,371.138916 504.514404,314.748657 504.514404,258.166534 
	C495.487732,258.166534 486.715881,258.166534 477.429779,258.166534 
	C477.429779,260.084778 477.435211,261.875427 477.429016,263.666016 
	C477.322388,294.489349 477.929718,325.336456 476.904968,356.129272 
	C475.884247,386.800629 451.622437,407.624817 420.992920,405.825165 
	C399.516449,404.563293 384.871094,392.693085 380.552155,372.424713 
	C379.315155,366.619537 379.018738,360.528931 378.989441,354.565765 
	C378.840363,324.240234 378.920654,293.913574 378.920624,263.587311 
	C378.920624,261.815063 378.920624,260.042816 378.920624,258.155914 
	C369.603973,258.155914 360.832611,258.155914 351.958771,258.155914 
	C351.863922,258.973907 351.722290,259.624542 351.722565,260.275085 
	C351.736481,293.600220 351.757080,326.925385 351.789856,360.250519 
	C351.802124,372.719299 353.739380,384.878906 359.401764,396.052063 
	C371.216492,419.365173 390.801483,430.320374 416.576965,431.230774 
	C440.611572,432.079681 460.585754,424.104340 475.568817,404.836334 
	C475.893799,404.418396 476.370148,404.118164 477.547791,403.087372 
	C477.547791,411.985107 477.547791,419.894653 477.547791,428.006866 
	C482.189514,428.006866 486.347748,428.006866 491.496582,428.006866 
M1048.962524,256.585236 
	C1032.144897,253.474884 1015.515564,253.647247 999.265747,259.622223 
	C965.442322,272.058838 944.650940,302.408539 943.358948,341.143250 
	C941.704773,390.734650 978.263977,430.165802 1026.936157,431.285980 
	C1067.021362,432.208496 1098.372192,410.277954 1110.344482,372.918671 
	C1110.768188,371.596527 1111.003296,370.213928 1111.421021,368.461670 
	C1103.646851,368.461670 1096.493652,368.622253 1089.353271,368.391479 
	C1085.963013,368.281921 1084.231934,369.186371 1082.689209,372.537964 
	C1065.164185,410.611572 1012.868225,417.863739 985.606201,386.048767 
	C973.426758,371.835236 969.751709,355.007233 970.866699,336.679749 
	C972.529663,309.343567 990.672974,286.538605 1016.143494,281.383392 
	C1041.932251,276.163696 1068.730103,285.522369 1081.777222,311.566833 
	C1082.314819,312.639923 1083.801880,313.910095 1084.874023,313.935699 
	C1093.119995,314.132416 1101.372681,314.043915 1110.198364,314.043915 
	C1099.990845,283.730225 1080.697266,264.132141 1048.962524,256.585236 
M1413.245361,430.007355 
	C1417.174438,430.264435 1415.783325,427.267273 1415.786011,425.496124 
	C1415.850830,382.353760 1415.836670,339.211273 1415.836670,296.068817 
	C1415.836670,294.766571 1415.836670,293.464325 1415.836670,291.928436 
	C1410.394409,291.928436 1405.302734,291.928436 1399.697021,291.928436 
	C1399.697021,309.990021 1399.697021,327.824463 1399.697021,346.310822 
	C1381.288330,322.436859 1346.031616,324.434418 1328.427612,346.687836 
	C1314.605225,364.161072 1312.841187,389.909393 1324.678101,408.965698 
	C1334.657349,425.031219 1349.230591,432.894318 1368.235352,431.877960 
	C1381.032227,431.193634 1391.301270,425.365326 1399.928589,414.519409 
	C1399.928589,420.283508 1399.928589,424.987579 1399.928589,430.008087 
	C1404.362671,430.008087 1408.325684,430.008087 1413.245361,430.007355 
M1501.760132,416.870056 
	C1501.760132,421.168365 1501.760132,425.466675 1501.760132,429.840393 
	C1507.169556,429.840393 1512.129639,429.840393 1516.856934,429.840393 
	C1516.856934,405.896484 1517.576416,382.092834 1516.540039,358.365936 
	C1516.053711,347.231140 1508.875244,338.537476 1498.414795,333.775452 
	C1483.640015,327.049377 1468.511475,327.144745 1454.052856,334.328094 
	C1443.383423,339.628754 1436.720337,348.760590 1433.692627,360.899017 
	C1438.466553,360.899017 1442.631714,361.049286 1446.773438,360.803345 
	C1447.947632,360.733582 1449.487549,359.781738 1450.124146,358.771088 
	C1458.481079,345.505341 1473.733276,340.331116 1488.322876,345.956268 
	C1498.251465,349.784332 1503.776611,360.480408 1500.859863,370.903015 
	C1488.842041,370.903015 1476.664062,370.356934 1464.569214,371.123535 
	C1458.107910,371.533051 1451.359619,373.293884 1445.499268,376.054688 
	C1434.168945,381.392334 1428.980347,391.062469 1429.749634,403.666931 
	C1430.507812,416.087036 1436.978760,424.451965 1448.382080,429.032471 
	C1465.378784,435.859863 1485.922363,431.301270 1498.527344,418.095978 
	C1499.352661,417.231232 1500.500122,416.673889 1501.760132,416.870056 
M1680.703857,405.500122 
	C1680.702148,392.673767 1680.844360,379.845367 1680.665039,367.021484 
	C1680.392456,347.524628 1670.426270,334.697693 1652.352539,330.485321 
	C1642.761230,328.249878 1633.094604,328.479248 1623.740845,331.506134 
	C1609.506836,336.112335 1601.022339,346.270477 1596.498047,360.897705 
	C1601.469482,360.897705 1605.775391,361.052124 1610.056519,360.794312 
	C1611.196289,360.725739 1612.716431,359.643524 1613.286621,358.602203 
	C1617.989868,350.011658 1625.382568,345.624298 1634.849976,344.271606 
	C1653.994385,341.536255 1666.773560,352.782837 1664.373901,370.769043 
	C1654.491333,370.769043 1644.539185,370.628143 1634.593750,370.826050 
	C1629.289673,370.931610 1623.900024,371.126953 1618.717896,372.143280 
	C1603.843994,375.060394 1593.721069,385.700806 1592.851685,398.688141 
	C1591.859497,413.514038 1598.761475,424.363159 1612.386230,429.393890 
	C1629.803101,435.824738 1649.884644,430.961212 1662.240601,417.344238 
	C1662.907471,416.609467 1663.734741,416.020294 1665.019531,414.898621 
	C1665.019531,420.355194 1665.019531,424.973328 1665.019531,429.704437 
	C1670.289795,429.704437 1675.335815,429.704437 1680.703857,429.704437 
	C1680.703857,421.769043 1680.703857,414.134583 1680.703857,405.500122 
M892.260193,334.499847 
	C892.260193,365.588287 892.260193,396.676758 892.260193,427.795807 
	C901.646790,427.795807 910.417053,427.795807 919.410950,427.795807 
	C919.410950,371.188171 919.410950,314.798615 919.410950,258.292786 
	C910.304321,258.292786 901.430298,258.292786 892.260193,258.292786 
	C892.260193,283.577911 892.260193,308.538879 892.260193,334.499847 
M1554.072754,369.500000 
	C1554.072754,361.741364 1554.072754,353.982697 1554.072754,345.875122 
	C1564.928223,345.875122 1575.184448,345.875122 1585.495850,345.875122 
	C1585.495850,340.790558 1585.495850,336.077026 1585.495850,330.973511 
	C1574.915649,330.973511 1564.665161,330.973511 1554.036255,330.973511 
	C1554.036255,323.662872 1554.036255,316.740723 1554.036255,309.699341 
	C1548.587891,309.699341 1543.533569,309.699341 1538.072998,309.699341 
	C1538.072998,316.957306 1538.072998,323.876007 1538.072998,331.152527 
	C1533.743042,331.152527 1529.812378,331.152527 1525.665649,331.152527 
	C1525.665649,336.266876 1525.665649,341.002777 1525.665649,346.238586 
	C1530.004517,346.238586 1534.065308,346.238586 1538.193848,346.238586 
	C1538.193848,357.229767 1538.094360,367.721039 1538.223022,378.209503 
	C1538.341309,387.854309 1538.175537,397.547180 1539.100098,407.125702 
	C1540.167480,418.182739 1547.626099,426.781311 1558.368774,428.607269 
	C1567.574951,430.171997 1577.086670,429.938507 1586.435913,430.498627 
	C1586.435913,424.690857 1586.435913,419.974548 1586.435913,415.093323 
	C1580.727905,415.093323 1575.404297,415.117767 1570.080811,415.088287 
	C1558.638428,415.024933 1554.179077,410.571350 1554.089355,398.975922 
	C1554.015869,389.484497 1554.073364,379.992004 1554.072754,369.500000 
z"/>
<path fill="#FDFDFD" opacity="1.000000" stroke="none" 
	d="
M698.524048,348.999634 
	C698.524048,318.524628 698.524048,288.549622 698.524048,258.276794 
	C707.581482,258.276794 716.333618,258.276794 725.526184,258.276794 
	C725.526184,266.539032 725.526184,274.953857 725.526184,283.780121 
	C726.402588,283.429718 726.900635,283.392548 727.092957,283.130768 
	C753.792236,246.791245 808.321045,246.290405 839.661011,275.017090 
	C884.169312,315.813965 876.106934,393.219604 824.076172,421.955597 
	C795.332397,437.830475 750.932251,435.539764 726.049805,401.379517 
	C726.049805,432.232330 726.049805,462.177521 726.049805,492.405365 
	C716.636841,492.405365 707.890198,492.405365 698.523987,492.405365 
	C698.523987,444.715973 698.523987,397.107788 698.524048,348.999634 
M836.740601,369.099792 
	C841.712708,355.804718 842.743835,342.072388 839.885620,328.307343 
	C835.034973,304.946411 821.796509,288.276855 798.206848,282.120544 
	C775.027771,276.071472 754.883179,282.502289 739.581299,301.127106 
	C726.100525,317.535400 723.711426,336.937775 727.049255,357.289185 
	C731.355774,383.546875 751.766602,402.731415 778.254150,405.710175 
	C802.896729,408.481506 826.302002,394.006287 836.740601,369.099792 
z"/>
<path fill="#FDFDFD" opacity="1.000000" stroke="none" 
	d="
M1140.284424,291.285706 
	C1163.625244,257.173920 1205.376953,247.366180 1241.132690,259.396240 
	C1279.121826,272.177704 1300.819946,307.471985 1298.108276,351.384979 
	C1249.639404,351.384979 1201.121704,351.384979 1152.574707,351.384979 
	C1154.082275,380.670197 1179.867188,405.168823 1209.528809,405.860840 
	C1233.512939,406.420441 1252.963257,397.651154 1266.660400,377.361938 
	C1267.408081,376.254547 1269.261353,375.328735 1270.624146,375.294739 
	C1278.447266,375.099762 1286.277710,375.199829 1295.370728,375.199829 
	C1292.484497,380.648682 1290.260254,385.729858 1287.284302,390.324097 
	C1266.832275,421.896515 1237.208374,434.971405 1200.510254,430.615021 
	C1165.236572,426.427734 1141.010376,406.620300 1129.806641,372.856964 
	C1120.404541,344.522583 1123.733643,317.038086 1140.284424,291.285706 
M1162.790283,304.325195 
	C1157.860229,311.312653 1154.409058,318.903320 1153.046875,327.481934 
	C1191.879395,327.481934 1230.407593,327.481934 1269.285767,327.481934 
	C1268.352295,318.146210 1264.754761,310.244995 1259.514893,303.037567 
	C1237.422241,272.648895 1186.415405,271.747040 1162.790283,304.325195 
z"/>
<path fill="#FDFDFD" opacity="1.000000" stroke="none" 
	d="
M232.533539,431.236176 
	C218.581024,431.667419 205.565842,429.779602 193.524429,423.152649 
	C160.905670,405.200928 158.952377,358.551300 189.985825,337.936890 
	C202.905151,329.355042 217.434280,326.252838 232.637970,326.077301 
	C252.264755,325.850647 271.896149,326.022064 291.471161,326.022064 
	C295.454712,302.487213 282.068359,283.968719 258.838776,280.830994 
	C242.601059,278.637695 227.043304,280.475098 214.342102,291.874786 
	C209.144714,296.539612 205.303604,302.715546 200.333862,308.833923 
	C192.838242,308.833923 184.036850,308.833923 175.207825,308.833923 
	C180.089355,283.198639 203.854462,260.649994 231.019241,256.179199 
	C246.966507,253.554611 262.877045,253.719315 278.403809,258.954193 
	C302.350800,267.027954 318.479370,287.544739 318.884430,312.823578 
	C319.495453,350.959534 319.043732,389.112549 319.043732,427.630737 
	C310.310242,427.630737 301.445740,427.630737 292.207336,427.630737 
	C292.207336,419.092560 292.207336,410.508606 292.207336,400.807098 
	C276.682892,420.665710 257.128571,430.564240 232.533539,431.236176 
M277.556274,389.050995 
	C287.363037,378.618988 292.010590,366.215363 292.043823,351.782898 
	C290.955017,351.652802 290.150879,351.473328 289.346710,351.472900 
	C270.848389,351.463531 252.343445,351.191101 233.855240,351.626587 
	C226.962997,351.788940 219.862778,352.817383 213.293350,354.855865 
	C201.653793,358.467590 195.251740,367.519806 195.147934,378.472046 
	C195.043579,389.478943 201.654251,399.289276 213.306931,402.654053 
	C236.646744,409.393616 258.450989,406.785980 277.556274,389.050995 
z"/>
<path fill="#FCFCFC" opacity="1.000000" stroke="none" 
	d="
M558.876465,419.139709 
	C542.350342,408.708069 532.326660,393.985962 526.824280,375.429993 
	C536.541809,375.429993 545.798401,375.429993 555.442017,375.429993 
	C555.612976,375.702148 555.994019,376.202057 556.265198,376.755829 
	C565.312866,395.228973 580.439453,405.011261 600.662659,405.562195 
	C610.626160,405.833618 620.918274,404.271851 630.598206,401.756256 
	C639.702332,399.390320 646.075195,392.868439 647.276184,382.688660 
	C648.029236,376.305573 646.169800,370.516022 640.427856,367.808777 
	C631.499390,363.599182 622.183777,360.022461 612.737793,357.143616 
	C599.088745,352.983856 585.044617,350.108185 571.434387,345.838562 
	C565.050842,343.836060 558.955322,340.367126 553.299988,336.686005 
	C527.832214,320.108643 530.448975,283.708069 553.413086,267.545929 
	C567.048767,257.949127 582.412598,254.774216 598.703430,254.636032 
	C620.804626,254.448547 640.951538,259.448883 656.711365,276.262756 
	C664.453796,284.523071 670.016602,293.968567 672.907654,305.627136 
	C663.617065,305.627136 654.695374,305.679047 645.776428,305.544830 
	C644.909790,305.531769 643.722900,304.556824 643.252625,303.712189 
	C631.811768,283.164490 613.187744,278.244171 591.724609,280.729889 
	C585.154480,281.490784 578.295959,283.722595 572.569458,287.018250 
	C558.796387,294.944672 558.855225,310.218323 573.133667,316.916016 
	C583.971130,321.999634 596.038574,324.505646 607.624451,327.936554 
	C618.603943,331.187927 629.817444,333.715790 640.636963,337.413574 
	C646.513611,339.421997 652.080688,342.763550 657.277405,346.261536 
	C682.495972,363.236572 679.111206,400.009277 656.236755,416.736816 
	C641.211182,427.724670 624.052856,431.216339 605.864868,431.339691 
	C589.224060,431.452576 573.464478,428.321228 558.876465,419.139709 
z"/>
<path fill="#FBFBFB" opacity="1.000000" stroke="none" 
	d="
M491.001282,428.006866 
	C486.347748,428.006866 482.189514,428.006866 477.547791,428.006866 
	C477.547791,419.894653 477.547791,411.985107 477.547791,403.087372 
	C476.370148,404.118164 475.893799,404.418396 475.568817,404.836334 
	C460.585754,424.104340 440.611572,432.079681 416.576965,431.230774 
	C390.801483,430.320374 371.216492,419.365173 359.401764,396.052063 
	C353.739380,384.878906 351.802124,372.719299 351.789856,360.250519 
	C351.757080,326.925385 351.736481,293.600220 351.722565,260.275085 
	C351.722290,259.624542 351.863922,258.973907 351.958771,258.155914 
	C360.832611,258.155914 369.603973,258.155914 378.920624,258.155914 
	C378.920624,260.042816 378.920624,261.815063 378.920624,263.587311 
	C378.920654,293.913574 378.840363,324.240234 378.989441,354.565765 
	C379.018738,360.528931 379.315155,366.619537 380.552155,372.424713 
	C384.871094,392.693085 399.516449,404.563293 420.992920,405.825165 
	C451.622437,407.624817 475.884247,386.800629 476.904968,356.129272 
	C477.929718,325.336456 477.322388,294.489349 477.429016,263.666016 
	C477.435211,261.875427 477.429779,260.084778 477.429779,258.166534 
	C486.715881,258.166534 495.487732,258.166534 504.514404,258.166534 
	C504.514404,314.748657 504.514404,371.138916 504.514404,428.006866 
	C500.069153,428.006866 495.782867,428.006866 491.001282,428.006866 
z"/>
<path fill="#FCFCFC" opacity="1.000000" stroke="none" 
	d="
M1049.371582,256.688477 
	C1080.697266,264.132141 1099.990845,283.730225 1110.198364,314.043915 
	C1101.372681,314.043915 1093.119995,314.132416 1084.874023,313.935699 
	C1083.801880,313.910095 1082.314819,312.639923 1081.777222,311.566833 
	C1068.730103,285.522369 1041.932251,276.163696 1016.143494,281.383392 
	C990.672974,286.538605 972.529663,309.343567 970.866699,336.679749 
	C969.751709,355.007233 973.426758,371.835236 985.606201,386.048767 
	C1012.868225,417.863739 1065.164185,410.611572 1082.689209,372.537964 
	C1084.231934,369.186371 1085.963013,368.281921 1089.353271,368.391479 
	C1096.493652,368.622253 1103.646851,368.461670 1111.421021,368.461670 
	C1111.003296,370.213928 1110.768188,371.596527 1110.344482,372.918671 
	C1098.372192,410.277954 1067.021362,432.208496 1026.936157,431.285980 
	C978.263977,430.165802 941.704773,390.734650 943.358948,341.143250 
	C944.650940,302.408539 965.442322,272.058838 999.265747,259.622223 
	C1015.515564,253.647247 1032.144897,253.474884 1049.371582,256.688477 
z"/>
<path fill="#FBFBFB" opacity="1.000000" stroke="none" 
	d="
M1412.766968,430.007721 
	C1408.325684,430.008087 1404.362671,430.008087 1399.928589,430.008087 
	C1399.928589,424.987579 1399.928589,420.283508 1399.928589,414.519409 
	C1391.301270,425.365326 1381.032227,431.193634 1368.235352,431.877960 
	C1349.230591,432.894318 1334.657349,425.031219 1324.678101,408.965698 
	C1312.841187,389.909393 1314.605225,364.161072 1328.427612,346.687836 
	C1346.031616,324.434418 1381.288330,322.436859 1399.697021,346.310822 
	C1399.697021,327.824463 1399.697021,309.990021 1399.697021,291.928436 
	C1405.302734,291.928436 1410.394409,291.928436 1415.836670,291.928436 
	C1415.836670,293.464325 1415.836670,294.766571 1415.836670,296.068817 
	C1415.836670,339.211273 1415.850830,382.353760 1415.786011,425.496124 
	C1415.783325,427.267273 1417.174438,430.264435 1412.766968,430.007721 
M1396.741943,397.014862 
	C1397.794556,390.675934 1399.901123,384.305634 1399.713501,378.003601 
	C1398.981567,353.413605 1376.088013,337.673401 1354.237305,346.212341 
	C1339.898682,351.815643 1331.985107,365.955627 1332.935547,384.274994 
	C1333.774414,400.447388 1344.512329,413.304047 1359.891235,416.549408 
	C1374.754639,419.686005 1388.999756,412.311188 1396.741943,397.014862 
z"/>
<path fill="#FAFAFA" opacity="1.000000" stroke="none" 
	d="
M1501.628906,416.421814 
	C1500.500122,416.673889 1499.352661,417.231232 1498.527344,418.095978 
	C1485.922363,431.301270 1465.378784,435.859863 1448.382080,429.032471 
	C1436.978760,424.451965 1430.507812,416.087036 1429.749634,403.666931 
	C1428.980347,391.062469 1434.168945,381.392334 1445.499268,376.054688 
	C1451.359619,373.293884 1458.107910,371.533051 1464.569214,371.123535 
	C1476.664062,370.356934 1488.842041,370.903015 1500.859863,370.903015 
	C1503.776611,360.480408 1498.251465,349.784332 1488.322876,345.956268 
	C1473.733276,340.331116 1458.481079,345.505341 1450.124146,358.771088 
	C1449.487549,359.781738 1447.947632,360.733582 1446.773438,360.803345 
	C1442.631714,361.049286 1438.466553,360.899017 1433.692627,360.899017 
	C1436.720337,348.760590 1443.383423,339.628754 1454.052856,334.328094 
	C1468.511475,327.144745 1483.640015,327.049377 1498.414795,333.775452 
	C1508.875244,338.537476 1516.053711,347.231140 1516.540039,358.365936 
	C1517.576416,382.092834 1516.856934,405.896484 1516.856934,429.840393 
	C1512.129639,429.840393 1507.169556,429.840393 1501.760132,429.840393 
	C1501.760132,425.466675 1501.760132,421.168365 1501.628906,416.421814 
M1449.109985,391.714874 
	C1441.964478,401.470398 1445.731323,412.644928 1457.456055,415.809937 
	C1465.675781,418.028778 1473.979370,417.742737 1481.993286,414.750580 
	C1494.354858,410.135101 1502.697266,397.420410 1501.154663,386.018097 
	C1487.861816,386.018097 1474.561035,385.631256 1461.307739,386.254517 
	C1457.348145,386.440765 1453.521606,389.453003 1449.109985,391.714874 
z"/>
<path fill="#FAFAFA" opacity="1.000000" stroke="none" 
	d="
M1680.703857,406.000122 
	C1680.703857,414.134583 1680.703857,421.769043 1680.703857,429.704437 
	C1675.335815,429.704437 1670.289795,429.704437 1665.019531,429.704437 
	C1665.019531,424.973328 1665.019531,420.355194 1665.019531,414.898621 
	C1663.734741,416.020294 1662.907471,416.609467 1662.240601,417.344238 
	C1649.884644,430.961212 1629.803101,435.824738 1612.386230,429.393890 
	C1598.761475,424.363159 1591.859497,413.514038 1592.851685,398.688141 
	C1593.721069,385.700806 1603.843994,375.060394 1618.717896,372.143280 
	C1623.900024,371.126953 1629.289673,370.931610 1634.593750,370.826050 
	C1644.539185,370.628143 1654.491333,370.769043 1664.373901,370.769043 
	C1666.773560,352.782837 1653.994385,341.536255 1634.849976,344.271606 
	C1625.382568,345.624298 1617.989868,350.011658 1613.286621,358.602203 
	C1612.716431,359.643524 1611.196289,360.725739 1610.056519,360.794312 
	C1605.775391,361.052124 1601.469482,360.897705 1596.498047,360.897705 
	C1601.022339,346.270477 1609.506836,336.112335 1623.740845,331.506134 
	C1633.094604,328.479248 1642.761230,328.249878 1652.352539,330.485321 
	C1670.426270,334.697693 1680.392456,347.524628 1680.665039,367.021484 
	C1680.844360,379.845367 1680.702148,392.673767 1680.703857,406.000122 
M1622.573486,416.250671 
	C1645.571289,421.002258 1667.325439,405.138550 1664.209473,386.019531 
	C1650.910400,386.019531 1637.601074,385.465393 1624.361938,386.190216 
	C1613.242798,386.798950 1606.937866,394.937317 1608.905396,404.459290 
	C1610.334839,411.376740 1615.389282,414.506195 1622.573486,416.250671 
z"/>
<path fill="#F8F8F8" opacity="1.000000" stroke="none" 
	d="
M892.260193,333.999817 
	C892.260193,308.538879 892.260193,283.577911 892.260193,258.292786 
	C901.430298,258.292786 910.304321,258.292786 919.410950,258.292786 
	C919.410950,314.798615 919.410950,371.188171 919.410950,427.795807 
	C910.417053,427.795807 901.646790,427.795807 892.260193,427.795807 
	C892.260193,396.676758 892.260193,365.588287 892.260193,333.999817 
z"/>
<path fill="#FAFAFA" opacity="1.000000" stroke="none" 
	d="
M1554.072754,370.000000 
	C1554.073364,379.992004 1554.015869,389.484497 1554.089355,398.975922 
	C1554.179077,410.571350 1558.638428,415.024933 1570.080811,415.088287 
	C1575.404297,415.117767 1580.727905,415.093323 1586.435913,415.093323 
	C1586.435913,419.974548 1586.435913,424.690857 1586.435913,430.498627 
	C1577.086670,429.938507 1567.574951,430.171997 1558.368774,428.607269 
	C1547.626099,426.781311 1540.167480,418.182739 1539.100098,407.125702 
	C1538.175537,397.547180 1538.341309,387.854309 1538.223022,378.209503 
	C1538.094360,367.721039 1538.193848,357.229767 1538.193848,346.238586 
	C1534.065308,346.238586 1530.004517,346.238586 1525.665649,346.238586 
	C1525.665649,341.002777 1525.665649,336.266876 1525.665649,331.152527 
	C1529.812378,331.152527 1533.743042,331.152527 1538.072998,331.152527 
	C1538.072998,323.876007 1538.072998,316.957306 1538.072998,309.699341 
	C1543.533569,309.699341 1548.587891,309.699341 1554.036255,309.699341 
	C1554.036255,316.740723 1554.036255,323.662872 1554.036255,330.973511 
	C1564.665161,330.973511 1574.915649,330.973511 1585.495850,330.973511 
	C1585.495850,336.077026 1585.495850,340.790558 1585.495850,345.875122 
	C1575.184448,345.875122 1564.928223,345.875122 1554.072754,345.875122 
	C1554.072754,353.982697 1554.072754,361.741364 1554.072754,370.000000 
z"/>
<path fill="#010101" opacity="1.000000" stroke="none" 
	d="
M836.550598,369.436768 
	C826.302002,394.006287 802.896729,408.481506 778.254150,405.710175 
	C751.766602,402.731415 731.355774,383.546875 727.049255,357.289185 
	C723.711426,336.937775 726.100525,317.535400 739.581299,301.127106 
	C754.883179,282.502289 775.027771,276.071472 798.206848,282.120544 
	C821.796509,288.276855 835.034973,304.946411 839.885620,328.307343 
	C842.743835,342.072388 841.712708,355.804718 836.550598,369.436768 
z"/>
<path fill="#040404" opacity="1.000000" stroke="none" 
	d="
M1162.973633,304.017975 
	C1186.415405,271.747040 1237.422241,272.648895 1259.514893,303.037567 
	C1264.754761,310.244995 1268.352295,318.146210 1269.285767,327.481934 
	C1230.407593,327.481934 1191.879395,327.481934 1153.046875,327.481934 
	C1154.409058,318.903320 1157.860229,311.312653 1162.973633,304.017975 
z"/>
<path fill="#030303" opacity="1.000000" stroke="none" 
	d="
M277.304871,389.303833 
	C258.450989,406.785980 236.646744,409.393616 213.306931,402.654053 
	C201.654251,399.289276 195.043579,389.478943 195.147934,378.472046 
	C195.251740,367.519806 201.653793,358.467590 213.293350,354.855865 
	C219.862778,352.817383 226.962997,351.788940 233.855240,351.626587 
	C252.343445,351.191101 270.848389,351.463531 289.346710,351.472900 
	C290.150879,351.473328 290.955017,351.652802 292.043823,351.782898 
	C292.010590,366.215363 287.363037,378.618988 277.304871,389.303833 
z"/>
<path fill="#020202" opacity="1.000000" stroke="none" 
	d="
M1396.546753,397.344147 
	C1388.999756,412.311188 1374.754639,419.686005 1359.891235,416.549408 
	C1344.512329,413.304047 1333.774414,400.447388 1332.935547,384.274994 
	C1331.985107,365.955627 1339.898682,351.815643 1354.237305,346.212341 
	C1376.088013,337.673401 1398.981567,353.413605 1399.713501,378.003601 
	C1399.901123,384.305634 1397.794556,390.675934 1396.546753,397.344147 
z"/>
<path fill="#020202" opacity="1.000000" stroke="none" 
	d="
M1449.372070,391.442688 
	C1453.521606,389.453003 1457.348145,386.440765 1461.307739,386.254517 
	C1474.561035,385.631256 1487.861816,386.018097 1501.154663,386.018097 
	C1502.697266,397.420410 1494.354858,410.135101 1481.993286,414.750580 
	C1473.979370,417.742737 1465.675781,418.028778 1457.456055,415.809937 
	C1445.731323,412.644928 1441.964478,401.470398 1449.372070,391.442688 
z"/>
<path fill="#020202" opacity="1.000000" stroke="none" 
	d="
M1622.161499,416.169861 
	C1615.389282,414.506195 1610.334839,411.376740 1608.905396,404.459290 
	C1606.937866,394.937317 1613.242798,386.798950 1624.361938,386.190216 
	C1637.601074,385.465393 1650.910400,386.019531 1664.209473,386.019531 
	C1667.325439,405.138550 1645.571289,421.002258 1622.161499,416.169861 
z"/>
</svg>